<svg width="25.000000" height="30.000000" viewBox="0 0 25 30" fill="none" xmlns="http://www.w3.org/2000/svg" xmlns:xlink="http://www.w3.org/1999/xlink">
	<desc>
			Created with Pixso.
	</desc>
	<defs/>
	<path id="Vector" d="M13.7939 2.6106C15.8086 0.0126953 18.6099 0 18.6099 0C18.6099 0 19.0264 2.44263 17.0249 4.79565C14.8877 7.30811 12.458 6.89697 12.458 6.89697C12.458 6.89697 12.002 4.9209 13.7939 2.6106ZM12.7144 8.60791C13.751 8.60791 15.6748 7.21387 18.1792 7.21387C22.4893 7.21387 24.1851 10.2144 24.1851 10.2144C24.1851 10.2144 20.8687 11.8733 20.8687 15.8984C20.8687 20.439 25 22.0037 25 22.0037C25 22.0037 22.1118 29.9561 18.2109 29.9561C16.4194 29.9561 15.0264 28.7747 13.1387 28.7747C11.2148 28.7747 9.30566 30 8.0625 30C4.5 30 0 22.4565 0 16.3928C0 10.427 3.80908 7.29761 7.38184 7.29761C9.70459 7.29761 11.5068 8.60791 12.7144 8.60791Z" fill="#FFFFFF" fill-opacity="1.000000" fill-rule="nonzero"/>
</svg>
